<?xml version="1.0" encoding="UTF-8" standalone="no"?><svg xmlns="http://www.w3.org/2000/svg" xmlns:xlink="http://www.w3.org/1999/xlink" contentStyleType="text/css" height="546px" preserveAspectRatio="none" style="width:725px;height:546px;background:#FFFFFF;" version="1.1" viewBox="0 0 725 546" width="725px" zoomAndPan="magnify"><defs/><g><!--cluster be.naturalsciences.bmdc.cruise.comparator--><g id="cluster_be.naturalsciences.bmdc.cruise.comparator"><path d="M182.5,406 L531.5,406 A3.75,3.75 0 0 1 534,408.5 L541,428.2969 L541.5,428.2969 A2.5,2.5 0 0 1 544,430.7969 L544,518.5 A2.5,2.5 0 0 1 541.5,521 L182.5,521 A2.5,2.5 0 0 1 180,518.5 L180,408.5 A2.5,2.5 0 0 1 182.5,406 " fill="none" style="stroke:#000000;stroke-width:1.5;"/><line style="stroke:#000000;stroke-width:1.5;" x1="180" x2="541" y1="428.2969" y2="428.2969"/><text fill="#000000" font-family="sans-serif" font-size="14" font-weight="bold" lengthAdjust="spacing" textLength="348" x="184" y="420.9951">be.naturalsciences.bmdc.cruise.comparator</text></g><!--cluster java.util--><g id="cluster_java.util"><path d="M8.5,6 L69.5,6 A3.75,3.75 0 0 1 72,8.5 L79,28.2969 L715.5,28.2969 A2.5,2.5 0 0 1 718,30.7969 L718,379.5 A2.5,2.5 0 0 1 715.5,382 L8.5,382 A2.5,2.5 0 0 1 6,379.5 L6,8.5 A2.5,2.5 0 0 1 8.5,6 " fill="none" style="stroke:#000000;stroke-width:1.5;"/><line style="stroke:#000000;stroke-width:1.5;" x1="6" x2="79" y1="28.2969" y2="28.2969"/><text fill="#000000" font-family="sans-serif" font-size="14" font-weight="bold" lengthAdjust="spacing" textLength="60" x="10" y="20.9951">java.util</text></g><!--class be.naturalsciences.bmdc.cruise.comparator.CoordinateComparator--><a href="CoordinateComparator.html" target="_top" title="CoordinateComparator.html" xlink:actuate="onRequest" xlink:href="CoordinateComparator.html" xlink:show="new" xlink:title="CoordinateComparator.html" xlink:type="simple"><g id="elem_be.naturalsciences.bmdc.cruise.comparator.CoordinateComparator"><rect codeLine="3" fill="#F1F1F1" height="64.2969" id="be.naturalsciences.bmdc.cruise.comparator.CoordinateComparator" rx="2.5" ry="2.5" style="stroke:#181818;stroke-width:0.5;" width="289" x="217.5" y="441"/><ellipse cx="279.25" cy="457" fill="#ADD1B2" rx="11" ry="11" style="stroke:#181818;stroke-width:1.0;"/><path d="M282.2188,462.6406 Q281.6406,462.9375 281,463.0781 Q280.3594,463.2344 279.6563,463.2344 Q277.1563,463.2344 275.8281,461.5938 Q274.5156,459.9375 274.5156,456.8125 Q274.5156,453.6875 275.8281,452.0313 Q277.1563,450.375 279.6563,450.375 Q280.3594,450.375 281,450.5313 Q281.6563,450.6875 282.2188,450.9844 L282.2188,453.7031 Q281.5938,453.125 281,452.8594 Q280.4063,452.5781 279.7813,452.5781 Q278.4375,452.5781 277.75,453.6563 Q277.0625,454.7188 277.0625,456.8125 Q277.0625,458.9063 277.75,459.9844 Q278.4375,461.0469 279.7813,461.0469 Q280.4063,461.0469 281,460.7813 Q281.5938,460.5 282.2188,459.9219 L282.2188,462.6406 Z " fill="#000000"/><text fill="#000000" font-family="sans-serif" font-size="14" lengthAdjust="spacing" textLength="157" x="299.75" y="461.8467">CoordinateComparator</text><line style="stroke:#181818;stroke-width:0.5;" x1="218.5" x2="505.5" y1="473" y2="473"/><line style="stroke:#181818;stroke-width:0.5;" x1="218.5" x2="505.5" y1="481" y2="481"/><ellipse cx="228.5" cy="494.6484" fill="#84BE84" rx="3" ry="3" style="stroke:#038048;stroke-width:1.0;"/><text fill="#000000" font-family="sans-serif" font-size="14" lengthAdjust="spacing" textLength="263" x="237.5" y="497.9951">compare(ICoordinate, ICoordinate): int</text></g></a><!--class java.util.Comparator--><g id="elem_java.util.Comparator"><rect codeLine="11" fill="#F1F1F1" height="325.0469" id="java.util.Comparator" rx="2.5" ry="2.5" style="stroke:#181818;stroke-width:0.5;" width="681" x="21.5" y="41"/><ellipse cx="311.75" cy="57" fill="#B4A7E5" rx="11" ry="11" style="stroke:#181818;stroke-width:1.0;"/><path d="M307.6719,52.7656 L307.6719,50.6094 L315.0625,50.6094 L315.0625,52.7656 L312.5938,52.7656 L312.5938,60.8438 L315.0625,60.8438 L315.0625,63 L307.6719,63 L307.6719,60.8438 L310.1406,60.8438 L310.1406,52.7656 L307.6719,52.7656 Z " fill="#000000"/><text fill="#000000" font-family="sans-serif" font-size="14" font-style="italic" lengthAdjust="spacing" textLength="81" x="332.25" y="61.8467">Comparator</text><rect fill="#FFFFFF" height="15.9688" style="stroke:#181818;stroke-width:1.0;stroke-dasharray:2.0,2.0;" width="9" x="696.5" y="38"/><text fill="#000000" font-family="sans-serif" font-size="12" font-style="italic" lengthAdjust="spacing" textLength="7" x="697.5" y="50.1387">T</text><line style="stroke:#181818;stroke-width:0.5;" x1="22.5" x2="701.5" y1="73" y2="73"/><line style="stroke:#181818;stroke-width:0.5;" x1="22.5" x2="701.5" y1="81" y2="81"/><ellipse cx="32.5" cy="94.6484" fill="#84BE84" rx="3" ry="3" style="stroke:#038048;stroke-width:1.0;"/><text fill="#000000" font-family="sans-serif" font-size="14" font-style="italic" lengthAdjust="spacing" textLength="123" x="41.5" y="97.9951">compare(T, T): int</text><ellipse cx="32.5" cy="110.9453" fill="#84BE84" rx="3" ry="3" style="stroke:#038048;stroke-width:1.0;"/><text fill="#000000" font-family="sans-serif" font-size="14" lengthAdjust="spacing" textLength="194" x="41.5" y="114.292">reversed(): Comparator&lt;T&gt;</text><ellipse cx="32.5" cy="127.2422" fill="#84BE84" rx="3" ry="3" style="stroke:#038048;stroke-width:1.0;"/><text fill="#000000" font-family="sans-serif" font-size="14" lengthAdjust="spacing" textLength="409" x="41.5" y="130.5889">thenComparing(Comparator&lt;? super T&gt;): Comparator&lt;T&gt;</text><ellipse cx="32.5" cy="143.5391" fill="#84BE84" rx="3" ry="3" style="stroke:#038048;stroke-width:1.0;"/><text fill="#000000" font-family="sans-serif" font-size="14" lengthAdjust="spacing" textLength="655" x="41.5" y="146.8857">thenComparing(Function&lt;? super T, ? extends U&gt;, Comparator&lt;? super U&gt;): Comparator&lt;T&gt;</text><ellipse cx="32.5" cy="159.8359" fill="#84BE84" rx="3" ry="3" style="stroke:#038048;stroke-width:1.0;"/><text fill="#000000" font-family="sans-serif" font-size="14" lengthAdjust="spacing" textLength="639" x="41.5" y="163.1826">thenComparing(Function&lt;? super T, ? extends Comparable&lt;? super U&gt;&gt;): Comparator&lt;T&gt;</text><ellipse cx="32.5" cy="176.1328" fill="#84BE84" rx="3" ry="3" style="stroke:#038048;stroke-width:1.0;"/><text fill="#000000" font-family="sans-serif" font-size="14" lengthAdjust="spacing" textLength="440" x="41.5" y="179.4795">thenComparingInt(ToIntFunction&lt;? super T&gt;): Comparator&lt;T&gt;</text><ellipse cx="32.5" cy="192.4297" fill="#84BE84" rx="3" ry="3" style="stroke:#038048;stroke-width:1.0;"/><text fill="#000000" font-family="sans-serif" font-size="14" lengthAdjust="spacing" textLength="474" x="41.5" y="195.7764">thenComparingLong(ToLongFunction&lt;? super T&gt;): Comparator&lt;T&gt;</text><ellipse cx="32.5" cy="208.7266" fill="#84BE84" rx="3" ry="3" style="stroke:#038048;stroke-width:1.0;"/><text fill="#000000" font-family="sans-serif" font-size="14" lengthAdjust="spacing" textLength="506" x="41.5" y="212.0732">thenComparingDouble(ToDoubleFunction&lt;? super T&gt;): Comparator&lt;T&gt;</text><ellipse cx="32.5" cy="225.0234" fill="#84BE84" rx="3" ry="3" style="stroke:#038048;stroke-width:1.0;"/><text fill="#000000" font-family="sans-serif" font-size="14" lengthAdjust="spacing" text-decoration="underline" textLength="459" x="41.5" y="228.3701">reverseOrder(): Comparator&lt;T extends Comparable&lt;? super T&gt;&gt;</text><ellipse cx="32.5" cy="241.3203" fill="#84BE84" rx="3" ry="3" style="stroke:#038048;stroke-width:1.0;"/><text fill="#000000" font-family="sans-serif" font-size="14" lengthAdjust="spacing" text-decoration="underline" textLength="454" x="41.5" y="244.667">naturalOrder(): Comparator&lt;T extends Comparable&lt;? super T&gt;&gt;</text><ellipse cx="32.5" cy="257.6172" fill="#84BE84" rx="3" ry="3" style="stroke:#038048;stroke-width:1.0;"/><text fill="#000000" font-family="sans-serif" font-size="14" lengthAdjust="spacing" text-decoration="underline" textLength="363" x="41.5" y="260.9639">nullsFirst(Comparator&lt;? super T&gt;): Comparator&lt;T&gt;</text><ellipse cx="32.5" cy="273.9141" fill="#84BE84" rx="3" ry="3" style="stroke:#038048;stroke-width:1.0;"/><text fill="#000000" font-family="sans-serif" font-size="14" lengthAdjust="spacing" text-decoration="underline" textLength="362" x="41.5" y="277.2607">nullsLast(Comparator&lt;? super T&gt;): Comparator&lt;T&gt;</text><ellipse cx="32.5" cy="290.2109" fill="#84BE84" rx="3" ry="3" style="stroke:#038048;stroke-width:1.0;"/><text fill="#000000" font-family="sans-serif" font-size="14" lengthAdjust="spacing" text-decoration="underline" textLength="621" x="41.5" y="293.5576">comparing(Function&lt;? super T, ? extends U&gt;, Comparator&lt;? super U&gt;): Comparator&lt;T&gt;</text><ellipse cx="32.5" cy="306.5078" fill="#84BE84" rx="3" ry="3" style="stroke:#038048;stroke-width:1.0;"/><text fill="#000000" font-family="sans-serif" font-size="14" lengthAdjust="spacing" text-decoration="underline" textLength="605" x="41.5" y="309.8545">comparing(Function&lt;? super T, ? extends Comparable&lt;? super U&gt;&gt;): Comparator&lt;T&gt;</text><ellipse cx="32.5" cy="322.8047" fill="#84BE84" rx="3" ry="3" style="stroke:#038048;stroke-width:1.0;"/><text fill="#000000" font-family="sans-serif" font-size="14" lengthAdjust="spacing" text-decoration="underline" textLength="406" x="41.5" y="326.1514">comparingInt(ToIntFunction&lt;? super T&gt;): Comparator&lt;T&gt;</text><ellipse cx="32.5" cy="339.1016" fill="#84BE84" rx="3" ry="3" style="stroke:#038048;stroke-width:1.0;"/><text fill="#000000" font-family="sans-serif" font-size="14" lengthAdjust="spacing" text-decoration="underline" textLength="440" x="41.5" y="342.4482">comparingLong(ToLongFunction&lt;? super T&gt;): Comparator&lt;T&gt;</text><ellipse cx="32.5" cy="355.3984" fill="#84BE84" rx="3" ry="3" style="stroke:#038048;stroke-width:1.0;"/><text fill="#000000" font-family="sans-serif" font-size="14" lengthAdjust="spacing" text-decoration="underline" textLength="472" x="41.5" y="358.7451">comparingDouble(ToDoubleFunction&lt;? super T&gt;): Comparator&lt;T&gt;</text></g><!--reverse link java.util.Comparator to be.naturalsciences.bmdc.cruise.comparator.CoordinateComparator--><g id="link_java.util.Comparator_be.naturalsciences.bmdc.cruise.comparator.CoordinateComparator"><path codeLine="7" d="M362,386.51 C362,407.14 362,425.99 362,440.72 " fill="none" id="java.util.Comparator-backto-be.naturalsciences.bmdc.cruise.comparator.CoordinateComparator" style="stroke:#181818;stroke-width:1.0;stroke-dasharray:7.0,7.0;"/><polygon fill="none" points="355,386.28,362,366.28,369,386.28,355,386.28" style="stroke:#181818;stroke-width:1.0;"/></g><text fill="#888888" font-family="sans-serif" font-size="10" lengthAdjust="spacing" textLength="186" x="262.5" y="536.2822">UMLDoclet 2.1.0, PlantUML 1.2022.14</text><!--SRC=[jPH1Qy8m5CVlVeft6LHMmhRZaEwW289ZEzIJU4ZJvyn84qbUPU3wtPTEiRNh1hKkXwPDtllztol_1010ympTbWk419dcb5kkd92e1JgMPAbWmkRI8HCcstBBoLZO3mPm749nvs1iZ4sbpyPn5RLSjYsp3MLgjV8Cg8tR0ns3MPKJGkrZ-0XIqocdg2fuvplESfAArRH7duorLZMePLUjdnYrihmSsdMvMsMFugXH-9udZYmNL5Gzn274ZNg_UxIuG-im3Vpc6VCyZ3Qe3zjIlmMrm2Tm-HOjn54Nm3JNWgJHLNe8Ju0VX3fri8X2Q95ON57YY4aKrl1T-3DDGMpyywTE5ypS-59ZKqxzG1EJ-sOywl3I5RPtn4cAucI85vkYRPhYhzyNHxyHZmVuciHSAJULrj45LcnWvhmdHVohgxlhN63j5f6B_Tt2wc7o5beFfnVrcrPWUPd2sfXoMZpF9qOe97XWz-mkX5V5DVbLk2dFWnS8Xby0]--></g></svg>